<svg width="496" height="128" viewBox="0 0 496 128" fill="none" xmlns="http://www.w3.org/2000/svg">
<path d="M133.494 47V11.7693H140.541V44.9656L135.38 40.6486H155.923V47H133.494ZM173.668 47.5954C171.187 47.5954 168.987 47.0331 167.068 45.9083C165.183 44.7505 163.694 43.1296 162.602 41.0455C161.544 38.9614 161.015 36.5135 161.015 33.7017C161.015 30.956 161.544 28.5411 162.602 26.457C163.661 24.373 165.133 22.752 167.019 21.5942C168.904 20.4033 171.088 19.8079 173.569 19.8079C176.017 19.8079 178.167 20.3868 180.019 21.5446C181.905 22.7024 183.377 24.3399 184.435 26.457C185.494 28.5411 186.023 31.0056 186.023 33.8505V35.5376H167.961C168.127 37.5225 168.722 39.0442 169.748 40.1027C170.806 41.1282 172.163 41.641 173.817 41.641C175.041 41.641 176.083 41.3598 176.943 40.7974C177.803 40.202 178.398 39.408 178.729 38.4156L185.478 38.8622C184.584 41.641 183.129 43.7912 181.111 45.3129C179.126 46.8346 176.645 47.5954 173.668 47.5954ZM168.061 30.9229H178.828C178.663 29.2027 178.101 27.9126 177.141 27.0525C176.182 26.1924 174.974 25.7623 173.519 25.7623C171.997 25.7623 170.757 26.2089 169.797 27.1021C168.871 27.9622 168.292 29.2358 168.061 30.9229ZM199.451 47.5954C197.83 47.5954 196.342 47.2977 194.985 46.7023C193.629 46.1068 192.554 45.2467 191.76 44.122C190.999 42.9973 190.619 41.6575 190.619 40.1027C190.619 37.8533 191.33 36.1 192.752 34.8429C194.208 33.5859 196.193 32.6927 198.707 32.1634L206.696 30.4267C206.696 28.7396 206.348 27.4495 205.654 26.5563C204.992 25.6631 203.9 25.2165 202.379 25.2165C201.056 25.2165 200.03 25.5473 199.302 26.2089C198.575 26.8705 198.095 27.7472 197.863 28.8388L190.916 28.4419C191.413 25.8285 192.653 23.7444 194.638 22.1897C196.656 20.6018 199.203 19.8079 202.28 19.8079C206.117 19.8079 208.929 20.7837 210.715 22.7355C212.534 24.6542 213.444 27.3502 213.444 30.8237V40.202C213.444 40.8636 213.56 41.3267 213.792 41.5913C214.023 41.8229 214.37 41.9387 214.834 41.9387H215.925V47C215.727 47.0331 215.396 47.0662 214.933 47.0992C214.47 47.1654 213.99 47.1985 213.494 47.1985C212.171 47.1985 211.046 46.9669 210.12 46.5038C209.193 46.0407 208.482 45.3625 207.986 44.4693C207.523 43.5762 207.258 42.5011 207.192 41.244H207.936C207.771 42.4349 207.324 43.5266 206.597 44.519C205.869 45.4783 204.893 46.2391 203.669 46.8015C202.445 47.3308 201.039 47.5954 199.451 47.5954ZM200.841 42.5341C202.098 42.5341 203.156 42.3191 204.016 41.8891C204.876 41.4259 205.538 40.7643 206.001 39.9042C206.464 39.0111 206.696 37.969 206.696 36.7781V35.1903L200.791 36.4804C199.6 36.7451 198.756 37.1255 198.26 37.6217C197.764 38.1179 197.516 38.8291 197.516 39.7554C197.516 40.6155 197.797 41.2936 198.36 41.7898C198.922 42.286 199.749 42.5341 200.841 42.5341ZM230.048 47.5954C227.931 47.5954 226.078 47.0496 224.49 45.958C222.902 44.8663 221.662 43.295 220.769 41.244C219.909 39.1599 219.479 36.6458 219.479 33.7017C219.479 30.7575 219.909 28.2599 220.769 26.2089C221.662 24.1249 222.902 22.537 224.49 21.4453C226.078 20.3537 227.931 19.8079 230.048 19.8079C231.9 19.8079 233.505 20.2214 234.861 21.0484C236.217 21.8423 237.21 22.8843 237.838 24.1745V11.7693H244.587V47H238.136L237.937 42.7822C237.276 44.2047 236.267 45.3625 234.911 46.2557C233.587 47.1489 231.966 47.5954 230.048 47.5954ZM231.983 41.641C233.174 41.641 234.199 41.3432 235.059 40.7478C235.953 40.1193 236.631 39.2096 237.094 38.0187C237.59 36.8278 237.838 35.3888 237.838 33.7017C237.838 31.9815 237.59 30.5259 237.094 29.335C236.631 28.1441 235.953 27.251 235.059 26.6555C234.199 26.0601 233.174 25.7623 231.983 25.7623C230.164 25.7623 228.791 26.4405 227.864 27.7968C226.938 29.1531 226.475 31.1214 226.475 33.7017C226.475 36.2489 226.938 38.2171 227.864 39.6065C228.791 40.9628 230.164 41.641 231.983 41.641ZM261.091 47V20.4033H267.839V47H261.091ZM251.216 47V41.641H276.225V47H251.216ZM251.713 25.7623V20.4033H266.599V25.7623H251.713ZM260.892 17.1283V11.2731H267.74V17.1283H260.892ZM281.168 47V20.4033H287.321L287.519 27.6479L286.825 27.3502C287.155 25.63 287.718 24.2076 288.512 23.0828C289.339 21.9581 290.348 21.1311 291.539 20.6018C292.73 20.0725 294.053 19.8079 295.508 19.8079C297.427 19.8079 298.982 20.2379 300.173 21.098C301.397 21.9581 302.306 23.1325 302.902 24.6211C303.497 26.1097 303.795 27.8299 303.795 29.7816V47H297.047V31.3199C297.047 29.302 296.699 27.8299 296.004 26.9036C295.343 25.9774 294.334 25.5142 292.978 25.5142C292.051 25.5142 291.208 25.7458 290.447 26.2089C289.686 26.6721 289.074 27.3502 288.611 28.2434C288.148 29.1366 287.916 30.2613 287.916 31.6176V47H281.168ZM322.036 55.0385C319.886 55.0385 318 54.7243 316.379 54.0958C314.791 53.4672 313.485 52.5741 312.459 51.4162C311.467 50.2915 310.772 48.9517 310.375 47.397L317.421 47C317.719 47.7939 318.232 48.4225 318.959 48.8856C319.687 49.3487 320.713 49.5803 322.036 49.5803C323.922 49.5803 325.344 49.1502 326.303 48.2901C327.296 47.4631 327.792 46.2391 327.792 44.6182V41.5417C327.196 42.7657 326.287 43.7581 325.063 44.519C323.839 45.2467 322.301 45.6106 320.448 45.6106C318.331 45.6106 316.429 45.0813 314.742 44.0228C313.088 42.9311 311.781 41.4425 310.822 39.5569C309.895 37.6382 309.432 35.4384 309.432 32.9573C309.432 30.2778 309.895 27.9622 310.822 26.0105C311.748 24.0256 313.022 22.5039 314.642 21.4453C316.296 20.3537 318.182 19.8079 320.299 19.8079C322.086 19.8079 323.624 20.2214 324.914 21.0484C326.237 21.8423 327.23 22.9836 327.891 24.4722L327.99 20.4033H334.54V43.7747C334.54 46.2557 334.028 48.3232 333.002 49.9772C331.977 51.6643 330.521 52.9214 328.635 53.7484C326.783 54.6085 324.583 55.0385 322.036 55.0385ZM322.135 40.202C323.822 40.202 325.179 39.59 326.204 38.366C327.263 37.1089 327.792 35.2564 327.792 32.8085C327.825 31.1545 327.593 29.7816 327.097 28.69C326.634 27.5652 325.973 26.7217 325.112 26.1593C324.252 25.5639 323.26 25.2661 322.135 25.2661C320.316 25.2661 318.91 25.9112 317.917 27.2013C316.925 28.4915 316.429 30.3605 316.429 32.8085C316.429 35.2564 316.925 37.1089 317.917 38.366C318.943 39.59 320.349 40.202 322.135 40.202ZM132.502 107V100.649H140.193V78.1208H132.502V71.7693H154.931V78.1208H147.239V100.649H154.931V107H132.502ZM162.156 107V80.4033H168.309L168.507 87.6479L167.813 87.3502C168.143 85.63 168.706 84.2076 169.5 83.0828C170.327 81.9581 171.336 81.1311 172.527 80.6018C173.717 80.0725 175.041 79.8079 176.496 79.8079C178.415 79.8079 179.97 80.2379 181.161 81.098C182.384 81.9581 183.294 83.1325 183.89 84.6211C184.485 86.1097 184.783 87.8299 184.783 89.7816V107H178.034V91.3199C178.034 89.302 177.687 87.8299 176.992 86.9036C176.331 85.9774 175.322 85.5142 173.966 85.5142C173.039 85.5142 172.196 85.7458 171.435 86.2089C170.674 86.6721 170.062 87.3502 169.599 88.2434C169.136 89.1366 168.904 90.2613 168.904 91.6176V107H162.156ZM206.845 107C203.867 107 201.668 106.322 200.245 104.966C198.856 103.609 198.161 101.509 198.161 98.6637V74.1511H204.909V98.0187C204.909 99.2426 205.191 100.152 205.753 100.748C206.348 101.343 207.258 101.641 208.482 101.641H214.734V107H206.845ZM190.519 85.7623V80.4033H214.734V85.7623H190.519ZM233.174 107.595C230.693 107.595 228.493 107.033 226.574 105.908C224.689 104.751 223.2 103.13 222.108 101.046C221.05 98.9614 220.521 96.5135 220.521 93.7017C220.521 90.956 221.05 88.5411 222.108 86.457C223.167 84.373 224.639 82.752 226.525 81.5942C228.41 80.4033 230.594 79.8079 233.075 79.8079C235.523 79.8079 237.673 80.3868 239.525 81.5446C241.411 82.7024 242.883 84.3399 243.942 86.457C245 88.5411 245.529 91.0056 245.529 93.8505V95.5376H227.467C227.633 97.5225 228.228 99.0442 229.254 100.103C230.312 101.128 231.669 101.641 233.323 101.641C234.547 101.641 235.589 101.36 236.449 100.797C237.309 100.202 237.904 99.408 238.235 98.4156L244.984 98.8622C244.09 101.641 242.635 103.791 240.617 105.313C238.632 106.835 236.151 107.595 233.174 107.595ZM227.567 90.9229H238.334C238.169 89.2027 237.607 87.9126 236.647 87.0525C235.688 86.1924 234.481 85.7623 233.025 85.7623C231.503 85.7623 230.263 86.2089 229.303 87.1021C228.377 87.9622 227.798 89.2358 227.567 90.9229ZM260.049 107V80.2048C260.049 79.1793 259.784 78.4185 259.255 77.9223C258.726 77.393 257.965 77.1283 256.972 77.1283H251.216V71.7693H258.163C261.041 71.7693 263.192 72.4971 264.614 73.9526C266.07 75.3751 266.797 77.5088 266.797 80.3537V107H260.049ZM250.224 107V101.641H275.233V107H250.224ZM289.802 107V80.2048C289.802 79.1793 289.537 78.4185 289.008 77.9223C288.479 77.393 287.718 77.1283 286.725 77.1283H280.969V71.7693H287.916C290.794 71.7693 292.945 72.4971 294.367 73.9526C295.823 75.3751 296.55 77.5088 296.55 80.3537V107H289.802ZM279.977 107V101.641H304.986V107H279.977ZM320.597 107V80.4033H327.345V107H320.597ZM310.722 107V101.641H335.731V107H310.722ZM311.219 85.7623V80.4033H326.105V85.7623H311.219ZM320.398 77.1283V71.2731H327.246V77.1283H320.398ZM351.789 115.039C349.639 115.039 347.753 114.724 346.132 114.096C344.544 113.467 343.238 112.574 342.212 111.416C341.22 110.292 340.525 108.952 340.128 107.397L347.174 107C347.472 107.794 347.985 108.422 348.712 108.886C349.44 109.349 350.466 109.58 351.789 109.58C353.675 109.58 355.097 109.15 356.056 108.29C357.049 107.463 357.545 106.239 357.545 104.618V101.542C356.95 102.766 356.04 103.758 354.816 104.519C353.592 105.247 352.054 105.611 350.201 105.611C348.084 105.611 346.182 105.081 344.495 104.023C342.841 102.931 341.534 101.442 340.575 99.5569C339.648 97.6382 339.185 95.4384 339.185 92.9573C339.185 90.2778 339.648 87.9622 340.575 86.0105C341.501 84.0256 342.775 82.5039 344.395 81.4453C346.05 80.3537 347.935 79.8079 350.052 79.8079C351.839 79.8079 353.377 80.2214 354.667 81.0484C355.99 81.8423 356.983 82.9836 357.644 84.4722L357.743 80.4033H364.293V103.775C364.293 106.256 363.781 108.323 362.755 109.977C361.73 111.664 360.274 112.921 358.389 113.748C356.536 114.609 354.336 115.039 351.789 115.039ZM351.888 100.202C353.575 100.202 354.932 99.59 355.957 98.366C357.016 97.1089 357.545 95.2564 357.545 92.8085C357.578 91.1545 357.346 89.7816 356.85 88.69C356.387 87.5652 355.726 86.7217 354.865 86.1593C354.005 85.5639 353.013 85.2661 351.888 85.2661C350.069 85.2661 348.663 85.9112 347.67 87.2013C346.678 88.4915 346.182 90.3605 346.182 92.8085C346.182 95.2564 346.678 97.1089 347.67 98.366C348.696 99.59 350.102 100.202 351.888 100.202ZM381.939 107.595C379.458 107.595 377.258 107.033 375.339 105.908C373.454 104.751 371.965 103.13 370.874 101.046C369.815 98.9614 369.286 96.5135 369.286 93.7017C369.286 90.956 369.815 88.5411 370.874 86.457C371.932 84.373 373.404 82.752 375.29 81.5942C377.175 80.4033 379.359 79.8079 381.84 79.8079C384.288 79.8079 386.438 80.3868 388.29 81.5446C390.176 82.7024 391.648 84.3399 392.707 86.457C393.765 88.5411 394.294 91.0056 394.294 93.8505V95.5376H376.233C376.398 97.5225 376.993 99.0442 378.019 100.103C379.077 101.128 380.434 101.641 382.088 101.641C383.312 101.641 384.354 101.36 385.214 100.797C386.074 100.202 386.669 99.408 387 98.4156L393.749 98.8622C392.856 101.641 391.4 103.791 389.382 105.313C387.397 106.835 384.916 107.595 381.939 107.595ZM376.332 90.9229H387.1C386.934 89.2027 386.372 87.9126 385.412 87.0525C384.453 86.1924 383.246 85.7623 381.79 85.7623C380.268 85.7623 379.028 86.2089 378.069 87.1021C377.142 87.9622 376.563 89.2358 376.332 90.9229ZM400.18 107V80.4033H406.333L406.531 87.6479L405.837 87.3502C406.168 85.63 406.73 84.2076 407.524 83.0828C408.351 81.9581 409.36 81.1311 410.551 80.6018C411.742 80.0725 413.065 79.8079 414.52 79.8079C416.439 79.8079 417.994 80.2379 419.185 81.098C420.409 81.9581 421.318 83.1325 421.914 84.6211C422.509 86.1097 422.807 87.8299 422.807 89.7816V107H416.059V91.3199C416.059 89.302 415.711 87.8299 415.017 86.9036C414.355 85.9774 413.346 85.5142 411.99 85.5142C411.063 85.5142 410.22 85.7458 409.459 86.2089C408.698 86.6721 408.086 87.3502 407.623 88.2434C407.16 89.1366 406.928 90.2613 406.928 91.6176V107H400.18ZM441.693 107.595C439.179 107.595 436.946 107.017 434.994 105.859C433.076 104.701 431.57 103.08 430.479 100.996C429.42 98.8787 428.891 96.4473 428.891 93.7017C428.891 90.956 429.42 88.5411 430.479 86.457C431.57 84.373 433.076 82.752 434.994 81.5942C436.946 80.4033 439.179 79.8079 441.693 79.8079C443.777 79.8079 445.679 80.2214 447.399 81.0484C449.12 81.8754 450.526 83.0498 451.617 84.5715C452.742 86.0932 453.453 87.9126 453.751 90.0297L447.052 90.3771C446.721 88.8885 446.093 87.7472 445.167 86.9532C444.24 86.1593 443.099 85.7623 441.743 85.7623C439.923 85.7623 438.484 86.4736 437.426 87.896C436.4 89.2854 435.887 91.2206 435.887 93.7017C435.887 96.1827 436.4 98.1344 437.426 99.5569C438.484 100.946 439.923 101.641 441.743 101.641C443.132 101.641 444.29 101.227 445.216 100.4C446.176 99.5734 446.804 98.366 447.102 96.7781L453.801 97.1255C453.536 99.2096 452.841 101.046 451.716 102.633C450.592 104.188 449.169 105.412 447.449 106.305C445.729 107.165 443.81 107.595 441.693 107.595ZM471.198 107.595C468.717 107.595 466.517 107.033 464.598 105.908C462.713 104.751 461.224 103.13 460.133 101.046C459.074 98.9614 458.545 96.5135 458.545 93.7017C458.545 90.956 459.074 88.5411 460.133 86.457C461.191 84.373 462.663 82.752 464.549 81.5942C466.434 80.4033 468.618 79.8079 471.099 79.8079C473.547 79.8079 475.697 80.3868 477.549 81.5446C479.435 82.7024 480.907 84.3399 481.966 86.457C483.024 88.5411 483.554 91.0056 483.554 93.8505V95.5376H465.492C465.657 97.5225 466.253 99.0442 467.278 100.103C468.337 101.128 469.693 101.641 471.347 101.641C472.571 101.641 473.613 101.36 474.473 100.797C475.333 100.202 475.929 99.408 476.259 98.4156L483.008 98.8622C482.115 101.641 480.659 103.791 478.641 105.313C476.656 106.835 474.175 107.595 471.198 107.595ZM465.591 90.9229H476.359C476.193 89.2027 475.631 87.9126 474.671 87.0525C473.712 86.1924 472.505 85.7623 471.049 85.7623C469.527 85.7623 468.287 86.2089 467.328 87.1021C466.401 87.9622 465.822 89.2358 465.591 90.9229Z" fill="#262625"/>
<path fill-rule="evenodd" clip-rule="evenodd" d="M59.771 107.539L12.0045 107.544V59.7753L12 59.7708H59.771V107.539ZM24.5667 72.3343V94.9817H47.2106L47.2089 94.98V72.3325H24.5649L24.5667 72.3343Z" fill="#262625"/>
<path fill-rule="evenodd" clip-rule="evenodd" d="M59.7729 12.0014H107.544V59.7724L107.543 59.771H59.7715V12L59.7729 12.0014ZM72.3336 47.2092H94.9807L94.9818 47.2103V24.5632H72.3347L72.3336 24.5621V47.2092Z" fill="#262625"/>
</svg>
